<svg width="1440" height="773" viewBox="0 0 1440 773" fill="none" xmlns="http://www.w3.org/2000/svg">
<g clip-path="url(#clip0_5_8950)">
<g opacity="0.5" clip-path="url(#clip1_5_8950)">
<g filter="url(#filter0_f_5_8950)">
<ellipse cx="1001.07" cy="569.96" rx="429.29" ry="429.29" transform="rotate(114.182 1001.07 569.96)" fill="url(#paint0_linear_5_8950)"/>
</g>
<g filter="url(#filter1_f_5_8950)">
<circle cx="1001.07" cy="569.961" r="417.559" transform="rotate(122.684 1001.07 569.961)" fill="url(#paint1_angular_5_8950)"/>
</g>
<g filter="url(#filter2_b_5_8950)">
<path d="M1604.16 55.5391L985.381 376.452C907.754 416.711 857.445 495.268 853.35 582.619L828.739 1107.58L1553.24 1141.55L1604.16 55.5391Z" fill="url(#paint2_linear_5_8950)"/>
<path d="M1604.16 55.5391L985.381 376.452C907.754 416.711 857.445 495.268 853.35 582.619L828.739 1107.58L1553.24 1141.55L1604.16 55.5391Z" stroke="url(#paint3_linear_5_8950)" stroke-width="1.08968"/>
</g>
<g filter="url(#filter3_b_5_8950)">
<path d="M1594.43 263.027L1159.13 487.436C1081.22 527.603 1030.67 606.314 1026.57 693.877L1006.85 1114.6L1553.3 1140.22L1594.43 263.027Z" fill="url(#paint4_linear_5_8950)"/>
<path d="M1594.43 263.027L1159.13 487.436C1081.22 527.603 1030.67 606.314 1026.57 693.877L1006.85 1114.6L1553.3 1140.22L1594.43 263.027Z" stroke="url(#paint5_linear_5_8950)" stroke-width="1.08968"/>
</g>
</g>
</g>
<defs>
<filter id="filter0_f_5_8950" x="398.963" y="-32.1426" width="1204.21" height="1204.21" filterUnits="userSpaceOnUse" color-interpolation-filters="sRGB">
<feFlood flood-opacity="0" result="BackgroundImageFix"/>
<feBlend mode="normal" in="SourceGraphic" in2="BackgroundImageFix" result="shape"/>
<feGaussianBlur stdDeviation="86.3533" result="effect1_foregroundBlur_5_8950"/>
</filter>
<filter id="filter1_f_5_8950" x="249.408" y="-181.698" width="1503.32" height="1503.32" filterUnits="userSpaceOnUse" color-interpolation-filters="sRGB">
<feFlood flood-opacity="0" result="BackgroundImageFix"/>
<feBlend mode="normal" in="SourceGraphic" in2="BackgroundImageFix" result="shape"/>
<feGaussianBlur stdDeviation="167.024" result="effect1_foregroundBlur_5_8950"/>
</filter>
<filter id="filter2_b_5_8950" x="773.685" y="0.136013" width="885.543" height="1196.47" filterUnits="userSpaceOnUse" color-interpolation-filters="sRGB">
<feFlood flood-opacity="0" result="BackgroundImageFix"/>
<feGaussianBlur in="BackgroundImageFix" stdDeviation="27.242"/>
<feComposite in2="SourceAlpha" operator="in" result="effect1_backgroundBlur_5_8950"/>
<feBlend mode="normal" in="SourceGraphic" in2="effect1_backgroundBlur_5_8950" result="shape"/>
</filter>
<filter id="filter3_b_5_8950" x="951.791" y="207.627" width="697.708" height="987.643" filterUnits="userSpaceOnUse" color-interpolation-filters="sRGB">
<feFlood flood-opacity="0" result="BackgroundImageFix"/>
<feGaussianBlur in="BackgroundImageFix" stdDeviation="27.242"/>
<feComposite in2="SourceAlpha" operator="in" result="effect1_backgroundBlur_5_8950"/>
<feBlend mode="normal" in="SourceGraphic" in2="effect1_backgroundBlur_5_8950" result="shape"/>
</filter>
<linearGradient id="paint0_linear_5_8950" x1="879.815" y1="986.512" x2="931.256" y2="315.552" gradientUnits="userSpaceOnUse">
<stop stop-color="#CCD9FF"/>
<stop offset="1" stop-color="#CCD9FF"/>
</linearGradient>
<radialGradient id="paint1_angular_5_8950" cx="0" cy="0" r="1" gradientUnits="userSpaceOnUse" gradientTransform="translate(1001.07 569.961) rotate(128.754) scale(491.75)">
<stop offset="0.275818" stop-color="#3E57DA"/>
<stop offset="0.588601" stop-color="#66E3EE"/>
<stop offset="0.754773" stop-color="#8098F9"/>
<stop offset="0.962057" stop-color="#F4F7FF"/>
</radialGradient>
<linearGradient id="paint2_linear_5_8950" x1="892.778" y1="449.26" x2="1247.37" y2="671.952" gradientUnits="userSpaceOnUse">
<stop stop-color="white" stop-opacity="0.4"/>
<stop offset="1" stop-color="white" stop-opacity="0.01"/>
</linearGradient>
<linearGradient id="paint3_linear_5_8950" x1="892.376" y1="463.002" x2="1017.42" y2="543.209" gradientUnits="userSpaceOnUse">
<stop stop-color="white"/>
<stop offset="1" stop-color="white" stop-opacity="0"/>
</linearGradient>
<linearGradient id="paint4_linear_5_8950" x1="1078.83" y1="566.511" x2="1310.09" y2="720.602" gradientUnits="userSpaceOnUse">
<stop stop-color="white" stop-opacity="0.4"/>
<stop offset="1" stop-color="white" stop-opacity="0.01"/>
</linearGradient>
<linearGradient id="paint5_linear_5_8950" x1="1078.86" y1="544.494" x2="1252.2" y2="669.177" gradientUnits="userSpaceOnUse">
<stop stop-color="white"/>
<stop offset="1" stop-color="white" stop-opacity="0"/>
</linearGradient>
<clipPath id="clip0_5_8950">
<rect width="1440" height="773" fill="white"/>
</clipPath>
<clipPath id="clip1_5_8950">
<rect width="1543.68" height="1543.68" fill="white" transform="translate(267.29 -236) rotate(2.68413)"/>
</clipPath>
</defs>
</svg>
